<?xml version="1.0" encoding="utf-8"?>
<!-- Generator: Adobe Illustrator 16.0.3, SVG Export Plug-In . SVG Version: 6.00 Build 0)  -->
<!DOCTYPE svg PUBLIC "-//W3C//DTD SVG 1.1//EN" "http://www.w3.org/Graphics/SVG/1.1/DTD/svg11.dtd">
<svg version="1.1" id="Capa_1" focusable="false" xmlns="http://www.w3.org/2000/svg" xmlns:xlink="http://www.w3.org/1999/xlink"
	 x="0px" y="0px" width="612px" height="792px" viewBox="0 0 612 792" enable-background="new 0 0 612 792" xml:space="preserve">
<path fill="#FFD700" d="M504.9,579.6H107.1c-8.415,0-15.3,6.886-15.3,15.301v30.6c0,8.415,6.885,15.3,15.3,15.3h397.8
	c8.415,0,15.3-6.885,15.3-15.3v-30.6C520.2,586.485,513.315,579.6,504.9,579.6z M566.1,273.6c-25.34,0-45.899,20.559-45.899,45.9
	c0,6.79,1.53,13.101,4.207,18.934l-69.232,41.501c-14.726,8.797-33.756,3.825-42.266-11.093l-77.935-136.361
	c10.231-8.415,16.926-21.038,16.926-35.381c0-25.341-20.56-45.9-45.9-45.9s-45.9,20.559-45.9,45.9
	c0,14.344,6.694,26.966,16.925,35.381l-77.934,136.361c-8.511,14.917-27.636,19.89-42.266,11.092l-69.137-41.501
	c2.582-5.737,4.208-12.144,4.208-18.934c0-25.341-20.559-45.9-45.9-45.9S0,294.159,0,319.5s20.56,45.9,45.9,45.9
	c2.486,0,4.973-0.382,7.363-0.765L122.4,549h367.2l69.138-184.365c2.391,0.383,4.876,0.765,7.362,0.765
	c25.341,0,45.9-20.559,45.9-45.9S591.44,273.6,566.1,273.6z"/>
</svg>
